<svg width="961" height="961" viewBox="0 0 961 961" fill="none" xmlns="http://www.w3.org/2000/svg">
<path d="M368.612 945.953C356.348 944.153 343.791 939.933 332.073 935.953C304.296 926.508 277.514 915.418 251.701 901.388C195.214 870.627 145.434 828.903 105.276 778.661C65.1173 728.419 35.388 670.669 17.8291 608.793C-5.14251 530.728 -5.49176 440.664 14.333 361.82C24.4621 322.765 39.3133 285.09 58.5581 249.629C66.6076 234.92 75.1386 220.292 84.6336 206.472C132.917 137.293 198.518 82.0047 274.875 46.1356C299.478 34.7942 324.923 25.3753 350.98 17.9634C472.281 -16.2486 602.182 -1.20996 712.457 59.8116C802.165 109.512 873.547 186.702 916.092 280.016C922.932 295.102 929.767 310.368 934.417 326.298C939.437 337.902 943.527 355.738 946.662 368.167C969.532 458.843 964.152 560.003 929.667 647.048C880.227 771.853 790.617 868.243 666.712 921.693C587.077 956.048 496.037 968.878 410.287 954.758C397.553 952.658 380.466 950.593 368.612 945.953Z" fill="#1B6EBB"/>
<path d="M893.217 588.418C895.042 583.788 895.997 578.278 897.127 573.423C900.981 557.009 903.852 540.38 905.722 523.623C913.444 450.077 901.745 375.792 871.792 308.179C865.232 292.962 858.217 278.131 849.917 263.771C838.457 243.937 824.762 224.959 810.462 207.074L810.487 206.962L810.032 206.452L810.472 207.162L811.287 206.945L811.242 207.266C817.172 212.555 822.587 218.532 828.372 224.002C855.452 249.622 881.717 276.067 908.567 301.92C913.002 306.188 929.862 323.631 933.807 325.955C934.012 326.073 934.217 326.183 934.417 326.298C939.437 337.902 943.527 355.738 946.662 368.167C969.532 458.843 964.152 560.003 929.667 647.048C880.227 771.853 790.617 868.243 666.712 921.693C587.077 956.048 496.037 968.878 410.287 954.758C397.553 952.658 380.466 950.593 368.612 945.953C366.591 943.583 349.085 933.223 345.25 930.713C336.224 924.813 327.301 918.828 318.706 912.303C279.488 882.518 243.653 849.888 211.2 812.838C211.457 812.978 211.715 813.118 211.97 813.258C217.13 816.188 223.343 823.003 228.379 826.848C241.535 836.893 255.748 846.438 270.169 854.568C363.044 906.943 475.827 924.663 579.642 898.513C581.383 898.075 583.118 897.613 584.847 897.128C621.047 888.783 671.852 866.413 702.972 846.023C765.697 804.918 815.257 755.518 852.037 689.748C862.707 670.668 871.827 651.838 879.392 631.283C884.567 617.213 890.137 603.133 893.217 588.418Z" fill="#113E81"/>
<path d="M707.932 404.327C713.572 406.937 737.887 433.086 744.247 439.464L833.192 528.463L872.522 567.793C879.282 574.558 885.942 582.253 893.217 588.418C890.137 603.133 884.567 617.213 879.392 631.283C871.827 651.838 862.707 670.668 852.037 689.748C815.257 755.518 765.697 804.918 702.972 846.023C671.852 866.413 621.047 888.783 584.847 897.128C581.662 892.918 577.397 889.168 573.647 885.433C565.162 876.968 556.457 868.763 547.812 860.463C537.832 850.878 528.327 840.833 518.517 831.078C510.272 822.878 501.722 814.998 493.437 806.833C462.877 776.703 433.078 745.818 402.034 716.188C392.585 707.173 383.906 697.183 373.782 688.923C376.071 687.848 378.491 686.978 380.839 686.038C381.28 687.253 381.753 688.448 382.322 689.613C384.209 693.505 386.865 696.973 390.13 699.809C393.395 702.645 397.201 704.79 401.319 706.113C409.25 708.643 417.942 708.133 425.302 704.138C429.704 701.748 434.304 697.853 436.827 693.478C442.882 682.978 447.438 663.378 451.214 651.338C457.97 629.798 465.136 608.393 471.582 586.758C494.547 611.078 518.492 634.358 542.292 657.848L579.472 695.118C597.187 712.843 615.027 730.442 632.992 747.913C637.522 752.308 641.567 757.328 646.242 761.548C648.007 763.138 649.912 764.513 652.197 765.248C656.107 766.508 660.432 765.808 663.932 763.728C669.227 760.583 673.957 754.478 678.337 750.148L715.307 713.133C727.777 700.793 742.657 688.598 753.792 675.178C756.212 672.263 757.787 669.058 758.547 665.333C759.732 659.563 758.767 652.208 755.607 647.118C751.417 640.358 744.467 634.753 738.847 629.183C733.472 623.858 728.212 618.418 722.902 613.033L685.752 576.003C665.199 554.962 644.428 534.134 623.442 513.523C616.302 506.523 609.437 499.303 602.387 492.223C598.532 488.348 592.487 483.623 589.682 478.968C589.112 478.023 589.222 478.473 589.462 477.358C593.572 474.608 608.702 470.261 614.512 468.224L668.692 449.223C677.462 446.084 686.532 443.188 695.087 439.501C701.787 436.61 706.502 432.657 709.197 425.643C712.012 418.324 711.032 411.352 707.932 404.327Z" fill="#1357A7"/>
<path d="M380.839 686.038C376.759 670.983 370.519 656.153 365.388 641.408C352.853 605.727 340.041 570.145 326.953 534.663L234.543 278.221C230.878 267.749 230.334 257.835 235.344 247.621C239.455 239.242 246.748 233.758 255.512 230.901C262.566 228.601 270.5 228.844 277.589 230.886C289.61 234.35 301.275 239.641 312.968 244.089L375.556 267.72C443.812 293.47 511.815 319.883 579.557 346.955L659.572 378.501C667.337 381.586 676.067 383.37 683.427 387.15C694.292 391.213 700.872 394.914 707.932 404.327C711.032 411.352 712.012 418.324 709.197 425.643C706.502 432.657 701.787 436.61 695.087 439.501C686.532 443.188 677.462 446.084 668.692 449.223L614.512 468.224C608.702 470.261 593.572 474.608 589.462 477.358C589.222 478.473 589.112 478.023 589.682 478.968C592.487 483.623 598.532 488.348 602.387 492.223C609.437 499.303 616.302 506.523 623.442 513.523C644.428 534.134 665.199 554.961 685.752 576.003L722.902 613.033C728.212 618.418 733.472 623.858 738.847 629.183C744.467 634.753 751.417 640.358 755.607 647.118C758.767 652.208 759.732 659.563 758.547 665.333C757.787 669.058 756.212 672.263 753.792 675.178C742.657 688.598 727.777 700.793 715.307 713.133L678.337 750.148C673.957 754.478 669.227 760.583 663.932 763.728C660.432 765.808 656.107 766.508 652.197 765.248C649.912 764.513 648.007 763.138 646.242 761.548C641.567 757.328 637.522 752.308 632.992 747.913C615.027 730.442 597.187 712.843 579.472 695.118L542.292 657.848C518.492 634.358 494.547 611.078 471.582 586.758C465.136 608.393 457.97 629.798 451.214 651.338C447.438 663.378 442.882 682.978 436.827 693.478C434.304 697.853 429.704 701.748 425.302 704.138C417.942 708.133 409.25 708.643 401.319 706.113C397.201 704.789 393.395 702.645 390.13 699.809C386.865 696.973 384.209 693.504 382.322 689.613C381.753 688.448 381.28 687.253 380.839 686.038Z" fill="url(#paint0_linear_3_23)"/>
<path d="M269.642 268.796C277.994 271.069 287.934 275.625 296.319 278.777L362.375 303.954C432.522 330.258 502.413 357.242 572.037 384.9C597.897 395.236 623.462 406.357 649.347 416.618C642.252 419.673 634.652 421.906 627.327 424.356L593.137 435.831L546.867 451.176C535.197 455.082 523.562 459.266 511.702 462.566C518.942 470.581 526.932 477.903 534.642 485.463L567.292 517.783C579.152 529.428 590.622 541.448 602.432 553.143C623.052 573.563 643.902 593.678 664.247 614.373C672.247 622.513 680.607 630.313 688.672 638.393C693.362 643.098 698.372 647.633 702.002 653.233C702.122 654.788 702.282 656.388 702.257 657.948C702.212 661.048 700.647 663.958 698.842 666.403C694.797 671.878 682.877 682.098 677.517 687.363C671.327 693.453 663.432 705.328 654.277 706.168C650.152 706.543 646.622 703.193 643.672 700.653C637.572 695.413 632.042 689.233 626.402 683.498L598.597 655.423L500.922 557.728C486.762 543.743 473.252 528.773 458.319 515.613C456.394 522.533 453.743 529.238 451.501 536.058L434.566 587.308L418.764 634.713C416.009 642.863 413.599 651.213 410.301 659.158C403.24 637.988 395.073 617.233 387.594 596.218L309.883 381.821C296.254 344.195 282.241 306.791 269.642 268.796Z" fill="#FEFEFE"/>
<path d="M118.51 699.948C115.118 697.673 112.193 690.653 110.171 687.013C97.0968 663.989 85.9334 639.932 76.7926 615.083C50.8531 544.383 47.4756 463.353 63.5181 389.986C70.5751 357.712 81.2591 327.095 95.1381 297.17C99.1306 288.562 103.795 280.23 108.413 271.946C157.928 183.485 237.247 115.481 332.233 80.0561C443.421 39.5076 551.092 43.4771 658.527 93.5866C665.342 96.7651 691.232 108.629 695.187 113.003C698.177 116.314 699.927 121.533 701.412 125.664C723.927 188.137 728.357 255.042 710.077 319.247C703.332 342.94 693.962 364.953 683.427 387.15C676.067 383.37 667.337 381.586 659.572 378.501L579.557 346.955C511.815 319.883 443.812 293.47 375.556 267.72L312.968 244.089C301.275 239.641 289.61 234.35 277.589 230.886C270.5 228.844 262.566 228.601 255.512 230.901C246.748 233.758 239.455 239.242 235.344 247.621C230.334 257.835 230.878 267.749 234.543 278.221L326.953 534.663C340.041 570.145 352.853 605.727 365.388 641.408C370.519 656.153 376.759 670.983 380.839 686.038C378.491 686.978 376.071 687.848 373.782 688.923C357.487 696.018 341.128 702.693 324.045 707.693C256.324 727.518 184.795 723.078 118.51 699.948Z" fill="#E87088"/>
<defs>
<linearGradient id="paint0_linear_3_23" x1="755.437" y1="670.573" x2="183.887" y2="336.475" gradientUnits="userSpaceOnUse">
<stop stop-color="#C03230"/>
<stop offset="1" stop-color="#F82C54"/>
</linearGradient>
</defs>
</svg>
